<svg xmlns="http://www.w3.org/2000/svg" viewBox="0 0 980 980" fill="none" shape-rendering="auto"><metadata xmlns:rdf="http://www.w3.org/1999/02/22-rdf-syntax-ns#" xmlns:xsi="http://www.w3.org/2001/XMLSchema-instance" xmlns:dc="http://purl.org/dc/elements/1.1/" xmlns:dcterms="http://purl.org/dc/terms/"><rdf:RDF><rdf:Description><dc:title>Lorelei</dc:title><dc:creator>Lisa Wischofsky</dc:creator><dc:source xsi:type="dcterms:URI">https://www.figma.com/community/file/1198749693280469639</dc:source><dcterms:license xsi:type="dcterms:URI">https://creativecommons.org/publicdomain/zero/1.0/</dcterms:license><dc:rights>Remix of „Lorelei” (https://www.figma.com/community/file/1198749693280469639) by „Lisa Wischofsky”, licensed under „CC0 1.0” (https://creativecommons.org/publicdomain/zero/1.0/)</dc:rights></rdf:Description></rdf:RDF></metadata><mask id="viewboxMask"><rect width="980" height="980" rx="0" ry="0" x="0" y="0" fill="#fff" /></mask><g mask="url(#viewboxMask)"><rect fill="#0d0d10" width="980" height="980" x="0" y="0" /><g transform="translate(10 -60)"><path d="M366 180c12 1 23 4 33 10 13 6 25 17 31 30 27 0 54-2 81 0a287 287 0 0 1 136 46c8 6 16 12 22 19 5 5 11 10 15 16 6 8 11 16 15 26 8 17 12 36 9 55-2 11-6 22-13 30-3 4-9 5-12 1-7-8-13-19-19-28-14-26-27-51-42-76l-16-1c-3 0-5-2-8-5l-11-8c-1 4-2 8-5 11-1 2-4 3-6 3-4-1-7-3-11-3a344 344 0 0 0-103-4 550 550 0 0 0-63 7l-18-6c1 8 4 17 3 26-1 4 0 7-2 10l-13 23-11 24c-6 16-11 32-14 48-1 2-2 5-4 6l-12 2c5 8 5 18 5 28-1 13-2 27-9 38 7 10 10 21 10 33 2 19 0 39-8 56l-7 10c2 23 6 47 13 70 7 24 17 48 27 71l17 36c1 3 3 7 1 10-2 6-6 10-11 14-7 5-15 8-24 10-13 3-27 2-38-5-8-4-15-10-20-18a180 180 0 0 0 18 49c-10 1-20-1-29-6a76 76 0 0 1-33-38c-8-19-12-39-15-59-12 23-32 43-55 55-7 3-14 5-21 1l2-7c7-10 15-21 21-32 10-17 18-36 20-55 2-13 2-27 1-40l-5-45-8-77-4-50a685 685 0 0 1 6-124 264 264 0 0 1 85-156c16-13 35-22 54-28 15-4 30-5 45-3Z" fill="#000000"/><path d="M528 244c41 6 80 22 113 47 28 21 50 49 65 81 13 28 20 60 19 91-1 15-3 30-8 44h-2l1-21c1-30-2-59-13-87-10-30-28-57-50-79-42-40-98-62-156-63a243 243 0 0 0-196 94 207 207 0 0 0-40 139l2 25c8 0 19 0 25 7l-3 3-17 1c-12 1-24 5-33 13a64 64 0 0 0-17 39c-5 32 12 65 39 83 16 10 36 15 55 9 4-2 9-5 14-3 3 1 4 4 5 7a251 251 0 0 0 90 100c8 7 18 13 28 18 18 8 38 14 57 19l32 8c5 1 9 1 13 3l-4 1c-25 2-48-3-72-10-12-3-23-7-34-12a306 306 0 0 1-84-63l2 28c1 17 0 35-6 52-4 12-11 24-19 34-10 10-22 19-34 26-10 7-21 14-32 18l-16 5 9-9 31-20 22-17a95 95 0 0 0 32-56c2-14 2-28 2-43v-27c-10-14-22-29-27-46-17 8-38 7-55-1-17-7-32-19-43-33-12-17-19-36-21-56s2-40 15-56c9-10 22-18 35-21-4-14-6-29-6-44a234 234 0 0 1 83-173 249 249 0 0 1 199-55Z" fill="#000"/><path d="M653 320c22 22 40 49 50 79 11 28 14 57 13 87l-1 21-5 15-2 13 2 56c0 21 1 42-1 63l-3 47c-2 16-7 31-14 45-11 18-26 33-44 44-13 8-27 12-41 16l-38 11-17 3c0 1 1 2 3 2 8 5 17 5 26 4-3 7-4 14-2 22 3 7 11 11 17 14 12 6 24 7 36 9 7 6 14 14 16 24 2 8 2 16-2 23-5 10-14 18-24 23-13 8-27 14-42 18a468 468 0 0 1-222-1c-17-4-33-9-48-17-12-6-23-13-32-22-5-7-9-14-10-23 11-4 22-11 32-18 12-7 24-16 34-26 8-10 15-22 19-34 6-17 7-35 6-52l-2-28 22 23c19 15 40 30 62 40 11 5 22 9 34 12 24 7 47 12 72 10l4-1c-4-2-8-2-13-3l-32-8c-19-5-39-11-57-19l-29-17c-11-9-23-17-33-27a251 251 0 0 1-56-74c-1-3-2-6-5-7-5-2-10 1-14 3-19 6-39 1-55-9a88 88 0 0 1-39-83c1-14 7-28 17-39 9-8 21-12 33-13l17-1 3-3c-6-7-17-7-25-7l-2-25a207 207 0 0 1 40-139 243 243 0 0 1 196-94c58 1 114 23 156 63Z" fill="#ffffff"/><path d="M710 522c3 0 3 4 4 6 3 11 4 23 5 34l2 21c1 22 2 43 1 65-1 21-1 44-5 65a136 136 0 0 1-80 99c-15 7-31 11-48 13v15c1 3 3 4 5 6 12 6 23 8 36 11 12 3 24 5 36 11-3 3-7 4-11 4-7 1-15-1-23-1-12-2-24-3-36-9-6-3-14-7-17-14-2-8-1-15 2-22-9 1-18 1-26-4-2 0-3-1-3-2l17-3 38-11c14-4 28-8 41-16 18-11 33-26 44-44 7-14 12-29 14-45l3-47c2-21 1-42 1-63l-2-56 2-13ZM252 549c8 0 17 1 23 7 5 4 10 9 12 15 1 3 0 6-2 8l-13 8c-7 6-7 19 0 25 6 5 14 8 21 11 2 0 5 1 6 3-1 2-3 3-5 3-10 0-20-3-28-9-5-3-8-8-9-13-2-8-2-17 4-24 4-6 11-9 18-12-4-5-7-11-14-13-7-3-15-3-22-5l9-4Z" fill="#000"/><path d="M681 495c3 0 7 0 10 2 2 1 2 2 1 4l-9 3-24 5c-1 6-1 13-4 19-2 5-6 9-11 9s-9-3-11-7c-3-5-5-11-6-18-4 0-9 1-12-1-1-3 3-4 5-4 12-5 26-7 39-9 7-2 15-2 22-3ZM496 502c5 0 11 0 16 3l3 3c-7 2-13 4-20 4-2 9-4 17-9 25-2 3-5 6-9 5-5-1-10-4-13-9-4-5-8-11-8-18l-56 2c-2-1-6 0-6-3 3-3 8-3 12-4l33-4c19-2 38-4 57-4Z" fill="#000000"/><path d="m650 510-6 17c-4-4-6-10-9-15l15-2ZM484 513l-6 18-4-2c-5-4-8-10-12-15l18-1h4Z" fill="#fff"/><path d="M505 385c8 1 16 2 23 6 5 4 8 9 10 14l-2 2c-2 1-4-1-6-2-9-6-21-7-32-7-9 0-18 2-27 6-8 3-17 5-24 9l-19 7c-13 5-27 5-40 10-7 3-12 9-18 13l-9 9c1-8 5-16 10-22l13-13c7-6 17-9 26-11 10-2 19-6 29-9l19-5c8-2 15-5 23-6l24-1ZM671 399c7 1 14 4 22 4v3c-7 6-15 9-24 10-12 2-26-1-37 3l-5 3c-9 10-14 22-20 34-2-7 3-15 5-22s7-12 9-19c4-9 14-16 24-16h26Z" fill="#000000"/><path d="m591 528 2 2 7 22c4 8 10 15 15 23 4 6 6 13 5 20-1 6-4 12-9 16-7 7-16 12-25 16-5 3-11 4-17 2l5-4c11-9 25-14 36-24 2-2 4-6 4-9-1-7-5-11-8-16-5-9-10-16-13-25-2-7-4-16-2-23Z" fill="#000000"/><path d="M719 585c9 0 17 4 22 11a29 29 0 0 1-6 41c8 2 16 7 22 13 9 11 16 26 15 41-1 8-4 15-8 21-8 13-21 22-35 28l8 9c3 7 4 14 4 22-1 12-6 24-15 33a62 62 0 0 1-38 17c-10 1-21 1-31-2-1 7-3 15-6 22a58 58 0 0 1-70 26c-12-5-22-14-28-24-15 9-31 12-48 12-14 1-31 0-43-7-8-3-13-9-18-15-3-3-5-6-6-11-11 9-26 11-39 9-10-3-19-8-24-17-5-6-6-15-6-23h-14c-8-1-16-5-23-10-11-10-20-23-26-37-2-6-4-12-4-19 0-11 4-22 11-31-3-7-4-14-2-21 3-12 12-22 22-28 9-6 20-8 31-7 2-6 5-10 10-14 11-10 25-16 40-16 10 0 19 1 27 5 4-6 9-9 15-11 11-5 23-4 34 1 19 7 34 18 52 25 5 4 12 3 19 4s14 0 21-1c3-1 7-1 9-3l19-10 20-15c8-5 18-10 28-9 4 1 7 3 9 6a92 92 0 0 1 52-15Z" fill="#000000"/><path d="m636 651-7 8-17 16c-9 10-19 18-32 22-18 6-38 4-57 0-10-3-21-7-31-13l-6-5c0-3 2-4 4-4l17 5 33-4c13-2 27-3 39 0l5-1 19-8c4-2 8-3 13-3 6-4 13-10 20-13Z" fill="#ffffff"/><path d="M508 220a271 271 0 0 1 97 24c14 7 29 14 42 23 8 5 16 11 22 18l22 25c-9 4-18 3-27 2-17-2-34-4-51-3l-8-1-7-5-12-8c0 4-1 7-3 11-2 2-4 3-7 3-4-1-7-3-11-3a470 470 0 0 0-155 3h-11l-18-6c1 9 4 18 3 26-1 4-1 8-3 11-7 14-15 27-21 42-7 17-13 35-17 53 0 2-1 4-3 5l-12 2c5 9 6 20 5 30-1 12-3 26-9 36 7 9 10 21 10 33 1 19 0 37-7 55-2 4-5 9-10 11-1 1-4 1-4-1-2-4-2-9-3-13-2-15-9-29-20-40-8-7-17-14-26-19-6-2-11-4-16-8l-6-8c-12-32-16-67-12-101a285 285 0 0 1 37-113c10-16 22-30 35-43 10-9 20-17 31-23l14-5 32-11 19-2h43c23 0 44-2 67 0Z" fill="#000000"/></g><g transform="translate(10 -60)"></g></g></svg>